<?xml version="1.0" encoding="UTF-8" standalone="no"?>
<svg
   xmlns:dc="http://purl.org/dc/elements/1.1/"
   xmlns:cc="http://creativecommons.org/ns#"
   xmlns:rdf="http://www.w3.org/1999/02/22-rdf-syntax-ns#"
   xmlns:svg="http://www.w3.org/2000/svg"
   xmlns="http://www.w3.org/2000/svg"
   id="svg44685"
   viewBox="0 0 1024 480"
   height="480px"
   width="1024px"
   version="1.1">
  <metadata
     id="metadata44691">
    <rdf:RDF>
      <cc:Work
         rdf:about="">
        <dc:format>image/svg+xml</dc:format>
        <dc:type
           rdf:resource="http://purl.org/dc/dcmitype/StillImage" />
      </cc:Work>
    </rdf:RDF>
  </metadata>
  <defs
     id="defs44689" />
  <style
     id="style44682">
    #title &gt; path {
        fill: #9aafd4;
    }
    .c1{
    fill: #9aafd4;
    }
    .c2{
    fill: #a4bdd8;
    }
    .c3{
    fill: #bdd2e5;
    }
    </style>
  <g
     id="title"
     style="font-style:normal;font-weight:normal;font-size:188px;line-height:1;font-family:'Brandmark Serif 2';font-variant-ligatures:none;text-align:left;dominant-baseline:middle;text-anchor:middle"
     aria-label="FURNI">
    <path
       id="path44693"
       style="font-style:normal;font-weight:normal;font-size:188px;line-height:1;font-family:'Brandmark Serif 2';font-variant-ligatures:none;text-align:left;dominant-baseline:middle;text-anchor:middle"
       d="m 349.37559,196.102 0.376,-0.188 c -1.692,-20.586 0.094,-36.378 2.256,-46.248 l -0.376,-0.188 c -7.238,1.41 -27.072,1.974 -45.496,1.222 v 0.376 c 24.064,1.692 34.78,23.03 43.24,45.026 z M 256.50359,287 h 49.726 v -0.376 c -8.46,-1.88 -13.818,-7.614 -13.818,-17.014 V 164.33 c 0,-8.46 0.658,-12.314 4.418,-13.254 V 150.7 h -40.326 v 0.376 c 7.52,1.88 11.938,7.614 11.938,17.014 v 101.52 c 0,9.4 -4.418,15.134 -11.938,17.014 z m 45.308,-66.176 c 20.68,2.82 28.858,5.64 35.062,25.944 l 0.376,-0.188 c -1.504,-16.826 -1.222,-34.122 0.94,-51.888 l -0.376,-0.188 c -6.204,20.304 -14.382,23.124 -36.002,25.944 z" />
    <path
       id="path44695"
       style="font-style:normal;font-weight:normal;font-size:188px;line-height:1;font-family:'Brandmark Serif 2';font-variant-ligatures:none;text-align:left;dominant-baseline:middle;text-anchor:middle"
       d="m 415.82184,287.752 c 36.942,0 45.872,-21.526 46.436,-40.796 h -0.376 c -2.162,22.278 -15.51,35.72 -37.13,35.72 -16.732,0 -35.344,-10.058 -35.344,-47.188 V 168.09 c 0,-9.4 4.418,-15.134 10.998,-17.014 V 150.7 h -47.376 v 0.376 c 7.52,1.88 11.938,7.708 11.938,17.014 v 67.398 c 0,43.052 28.012,52.264 50.854,52.264 z m 23.312,-136.676 c 15.228,2.632 22.184,17.484 23.312,75.294 h 0.376 c 1.88,-57.998 8.93,-72.944 24.158,-75.294 V 150.7 h -47.846 z" />
    <path
       id="path44697"
       style="font-style:normal;font-weight:normal;font-size:188px;line-height:1;font-family:'Brandmark Serif 2';font-variant-ligatures:none;text-align:left;dominant-baseline:middle;text-anchor:middle"
       d="m 602.53522,280.326 -0.282,-0.376 c -2.068,0.94 -4.23,1.504 -6.486,1.504 -7.426,0 -10.622,-7.238 -18.612,-29.798 -6.58,-18.518 -15.322,-29.422 -42.394,-32.054 35.25,-0.564 47.188,-15.322 47.188,-35.438 0,-22.748 -15.04,-34.404 -45.684,-33.464 v 0.376 c 11.562,0.752 18.518,15.416 18.518,34.592 0,14.758 -3.854,33.276 -30.456,33.276 v 0.376 c 17.86,4.23 21.244,15.04 25.944,32.9 6.768,25.756 13.536,35.532 29.328,35.532 8.648,0 17.484,-3.102 22.936,-7.426 z M 479.01922,287 h 49.726 v -0.376 c -8.46,-1.88 -13.818,-7.614 -13.818,-17.014 V 168.09 c 0,-9.4 4.418,-15.134 11.938,-17.014 V 150.7 h -47.846 v 0.376 c 7.52,1.88 11.938,7.614 11.938,17.014 v 101.52 c 0,9.4 -4.418,15.134 -11.938,17.014 z" />
    <path
       id="path44699"
       style="font-style:normal;font-weight:normal;font-size:188px;line-height:1;font-family:'Brandmark Serif 2';font-variant-ligatures:none;text-align:left;dominant-baseline:middle;text-anchor:middle"
       d="m 611.20378,176.174 87.044,111.766 h 0.376 l 1.88,-56.682 h -0.376 c -1.88,7.144 -6.486,7.896 -11.092,2.068 l -56.212,-71.346 c -6.204,-7.896 -8.084,-11.28 -16.45,-11.28 h -32.618 v 0.376 c 10.34,1.88 18.048,13.066 27.448,25.098 z M 582.53378,287 h 47.846 v -0.376 c -15.228,-2.35 -22.278,-17.296 -23.782,-90.24 h -0.376 c -1.504,72.944 -8.46,87.89 -23.688,90.24 z m 94.752,-135.924 c 15.228,2.35 22.278,17.296 23.782,62.98 h 0.376 c 1.504,-45.59 8.46,-60.63 23.688,-62.98 V 150.7 h -47.846 z" />
    <path
       id="path44701"
       style="font-style:normal;font-weight:normal;font-size:188px;line-height:1;font-family:'Brandmark Serif 2';font-variant-ligatures:none;text-align:left;dominant-baseline:middle;text-anchor:middle"
       d="M 719.52703,286.624 V 287 h 47.846 v -0.376 c -7.52,-1.88 -11.938,-7.614 -11.938,-17.014 V 168.09 c 0,-9.4 4.418,-15.134 11.938,-17.014 V 150.7 h -47.846 v 0.376 c 7.52,1.88 11.938,7.614 11.938,17.014 v 101.52 c 0,9.4 -4.418,15.134 -11.938,17.014 z" />
  </g>
</svg>