<?xml version="1.0" encoding="UTF-8" standalone="no"?>
<svg xmlns:dc="http://purl.org/dc/elements/1.1/" xmlns:cc="http://creativecommons.org/ns#" xmlns:rdf="http://www.w3.org/1999/02/22-rdf-syntax-ns#" xmlns:svg="http://www.w3.org/2000/svg" xmlns="http://www.w3.org/2000/svg" id="svg140008" viewBox="0 0 1024 480" height="480px" width="1024px" version="1.1">
  <metadata id="metadata140014">
    <rdf:RDF>
      <cc:Work rdf:about="">
        <dc:format>image/svg+xml</dc:format>
        <dc:type rdf:resource="http://purl.org/dc/dcmitype/StillImage"/>
      </cc:Work>
    </rdf:RDF>
  </metadata>
  <defs id="defs140012"/>
  <style id="style140005">
    #title &gt; path {
        fill: #9aafd4;
    }
    .c1{
    fill: #9aafd4;
    }
    .c2{
    fill: #a4bdd8;
    }
    .c3{
    fill: #bdd2e5;
    }
    </style>
  <g id="title" style="font-style:normal;font-weight:normal;font-size:188px;line-height:1;font-family:'Brandmark Sans 50 Spectrum';font-variant-ligatures:none;text-align:left;dominant-baseline:middle;text-anchor:middle" aria-label="Furni">
    
    
    
    
    
  <g id="path140016"> <path d="M110.584,56.07898v-.00488h-.09424c.01074,0,.02148.00146.03223.00195-13.12695.03369-23.80518,10.73145-23.80518,24.05322v36.271c0,3.27295,2.60645,5.89209,5.87256,5.91748,3.2666-.02539,5.87305-2.64453,5.87305-5.91748v-10.52441h6.20166c3.27295,0,5.89258-2.60596,5.91748-5.87256-.0249-3.2666-2.64453-5.87305-5.91748-5.87305h-6.20166v-14.00098c0-6.85938,5.4502-12.30957,12.12158-12.30957v-.00439c3.22852-.0498,5.79834-2.6333,5.82373-5.86816-.02539-3.23486-2.59521-5.81836-5.82373-5.86816Z" class="c1" stroke-width="0" transform="translate(242.98962 129.456) scale(2.6111111111111) translate(-86.71681 -56.0741)"/> <path d="M92.58961,105.87567h5.87281v-11.74561h-5.87281c-3.24346,0-5.8728,2.62934-5.8728,5.8728h0c0,3.24347,2.62934,5.87281,5.8728,5.87281Z" class="c2" stroke-width="0" transform="translate(242.98962 129.456) scale(2.6111111111111) translate(-86.71681 -56.0741)"/> <path d="M104.66408,105.87567c3.27295,0,5.89258-2.60596,5.91748-5.87256-.0249-3.2666-2.64453-5.87305-5.91748-5.87305h-6.20166v11.74561h6.20166Z" class="c3" stroke-width="0" transform="translate(242.98962 129.456) scale(2.6111111111111) translate(-86.71681 -56.0741)"/> </g><g id="path140018"> <path d="M87.65382,80.91622v17.78552c0,6.76862,5.54443,12.24109,12.24121,12.24109,6.76855,0,12.31299-5.47247,12.31299-12.24109v-17.78552c0-3.31226,2.66406-5.9765,5.97656-5.9765,3.24023,0,5.9043,2.66425,5.9043,5.9765v17.78552c0,13.32117-11.0166,24.12213-24.19385,24.12213-11.16113,0-20.66602-7.77667-23.2583-18.14557-.50391-3.31232-.79199-8.56873-.79199-11.95306v-11.80902c0-3.31226,2.66455-5.9765,5.97656-5.9765,3.24023,0,5.83252,2.66425,5.83252,5.9765Z" class="c1" stroke-width="0" transform="translate(328.653 178.712) scale(2.6111111111111) translate(-75.84474 -74.93972)"/> </g><g id="path140020"> <path d="M91.68605,98.55777v17.78552c0,3.31232-2.59229,5.9765-5.83252,5.9765-3.3125,0-5.97656-2.66418-5.97656-5.9765v-17.78552c0-13.24915,10.80078-24.05011,24.05005-24.05011,6.55249,0,12.60107,2.59229,16.99341,6.98462,2.23218,2.37622,2.23218,5.97656,0,8.35272-2.37622,2.23224-5.97656,2.23224-8.35254.07202-2.1604-2.3042-5.32861-3.60028-8.64087-3.60028-6.69653,0-12.24097,5.47241-12.24097,12.24103Z" class="c1" stroke-width="0" transform="translate(476.08319 177.584) scale(2.6111111111111) translate(-79.87697 -74.50766)"/> </g><g id="path140022"> <path d="M75.88063,116.34329v-17.78552c0-13.24915,10.80103-24.05011,24.05005-24.05011,13.17725,0,24.19409,10.80096,24.19409,24.05011v17.78552c0,3.31232-2.66431,5.9765-5.90454,5.9765-3.31226,0-5.97656-2.66418-5.97656-5.9765v-17.78552c0-6.76862-5.54443-12.24103-12.31299-12.24103-6.69653,0-12.24097,5.47241-12.24097,12.24103v17.78552c0,3.31232-2.59229,5.9765-5.83252,5.9765-3.31226,0-5.97656-2.66418-5.97656-5.9765Z" class="c1" stroke-width="0" transform="translate(600.19256 177.584) scale(2.6111111111111) translate(-75.88063 -74.50766)"/> </g><g id="path140024"> <path d="M94.0608,116.34329v-35.42706c0-3.31226,2.66431-5.9765,5.97656-5.9765,3.24023,0,5.83252,2.66425,5.83252,5.9765v35.42706c0,3.31232-2.59229,5.9765-5.83252,5.9765-3.31226,0-5.97656-2.66418-5.97656-5.9765Z" class="c1" stroke-width="0" transform="translate(750.25475 178.712) scale(2.6111111111111) translate(-94.0608 -74.93973)"/> </g></g>
</svg>
