<?xml version="1.0" encoding="UTF-8" standalone="no"?>
<svg xmlns:dc="http://purl.org/dc/elements/1.1/" xmlns:cc="http://creativecommons.org/ns#" xmlns:rdf="http://www.w3.org/1999/02/22-rdf-syntax-ns#" xmlns:svg="http://www.w3.org/2000/svg" xmlns="http://www.w3.org/2000/svg" id="svg368710" viewBox="0 0 1024 480" height="480px" width="1024px" version="1.1">
  <metadata id="metadata368716">
    <rdf:RDF>
      <cc:Work rdf:about="">
        <dc:format>image/svg+xml</dc:format>
        <dc:type rdf:resource="http://purl.org/dc/dcmitype/StillImage"/>
      </cc:Work>
    </rdf:RDF>
  </metadata>
  <defs id="defs368714"/>
  <style id="style368707">
    #title &gt; path {
        fill: #9aafd4;
    }
    .c1{
    fill: #9aafd4;
    }
    .c2{
    fill: #a4bdd8;
    }
    .c3{
    fill: #bdd2e5;
    }
    </style>
  <g id="title" style="font-style:normal;font-weight:normal;font-size:188px;line-height:1;font-family:'Brandmark Sans 35 Color';font-variant-ligatures:none;text-align:left;dominant-baseline:middle;text-anchor:middle" aria-label="Furni">
    
    
    
    
    
  <g id="path368718"> <polygon class="c1" points="119.04762,84.87659 97.44569,84.87659 97.44569,92.07721 115.44728,92.07721 115.44728,105.03833 97.44569,105.03833 97.44569,122.31982 83.04445,122.31982 83.04445,71.91547 119.04762,71.91547 " transform="translate(311.32469 155.4) scale(2.6111111111111) translate(-83.04445 -71.91547)"/> </g> <g id="path368720"> <path class="c1" d="M102.77443,108.85464v-22.5379h13.68115v36.00305h-10.44092 c1.94434-3.4563,3.09619-6.84058,3.6001-10.29688h-0.57568c-0.86426,5.54449-4.03271,11.37701-12.16943,11.37701 c-9.79248,0-13.68115-5.68854-13.68115-13.53717V86.31673h13.68115v22.5379c0,1.72815,1.0083,2.66425,2.95264,2.66425 C101.91017,111.51888,102.77443,110.58279,102.77443,108.85464z" transform="translate(409.87487 193) scale(2.6111111111111) translate(-83.1885 -86.31673)"/> </g> <g id="path368722"> <path class="c1" d="M103.31398,122.31979H89.63283V86.31673h10.44092c-1.94409,3.88831-3.09619,7.84863-3.6001,11.737h0.57593 c0.79199-5.54449,4.03247-12.81714,12.16895-12.81714h3.24048v11.88104h-6.19263c-2.08813,0-2.95239,0.9361-2.95239,2.66425 C103.31399,99.78188,103.31399,122.31979,103.31398,122.31979z" transform="translate(510.32269 190.18) scale(2.6111111111111) translate(-89.63283 -85.23659)"/> </g> <g id="path368724"> <path class="c1" d="M97.23,99.78188v22.5379H83.5486V86.31673h10.44092c-1.94409,3.88831-3.09619,7.84863-3.60034,11.737 h0.57617c0.86401-5.54449,4.03223-12.81714,12.16895-12.81714c9.79297,0,13.68115,5.68854,13.68115,13.53717v23.54602H103.1343 v-22.5379c0-1.72815-1.00806-2.66425-2.95215-2.66425C98.09401,97.11764,97.23,98.05373,97.23,99.78188z" transform="translate(577.88519 190.18) scale(2.6111111111111) translate(-83.5486 -85.23659)"/> </g> <g id="path368726"> <path class="c3" d="M99.96535,69.03524c3.96045,0,7.20068,3.24023,7.20068,7.20056c0,3.96039-3.24023,7.20068-7.20068,7.20068 c-3.96021,0-7.20068-3.2403-7.20068-7.20068C92.76466,72.27547,96.00514,69.03524,99.96535,69.03524z" transform="translate(676.453 147.88) scale(2.6111111111111) translate(-92.76467 -69.03524)"/> <rect x="93.12477" y="86.31673" class="c1" width="13.68115" height="36.00305" transform="translate(676.453 147.88) scale(2.6111111111111) translate(-92.76467 -69.03524)"/> </g> </g>
</svg>
