<?xml version="1.0" encoding="UTF-8" standalone="no"?>
<svg
   xmlns:dc="http://purl.org/dc/elements/1.1/"
   xmlns:cc="http://creativecommons.org/ns#"
   xmlns:rdf="http://www.w3.org/1999/02/22-rdf-syntax-ns#"
   xmlns:svg="http://www.w3.org/2000/svg"
   xmlns="http://www.w3.org/2000/svg"
   id="svg25975"
   viewBox="0 0 1024 480"
   height="480px"
   width="1024px"
   version="1.1">
  <metadata
     id="metadata25981">
    <rdf:RDF>
      <cc:Work
         rdf:about="">
        <dc:format>image/svg+xml</dc:format>
        <dc:type
           rdf:resource="http://purl.org/dc/dcmitype/StillImage" />
      </cc:Work>
    </rdf:RDF>
  </metadata>
  <defs
     id="defs25979" />
  <style
     id="style25972">
    #title &gt; path {
        fill: #9aafd4;
    }
    .c1{
    fill: #9aafd4;
    }
    .c2{
    fill: #a4bdd8;
    }
    .c3{
    fill: #bdd2e5;
    }
    </style>
  <g
     id="title"
     style="font-style:normal;font-weight:normal;font-size:188px;line-height:1;font-family:'Brandmark Sans 35';font-variant-ligatures:none;text-align:left;dominant-baseline:middle;text-anchor:middle"
     aria-label="Furni">
    <path
       id="path25983"
       style="font-style:normal;font-weight:normal;font-size:188px;line-height:1;font-family:'Brandmark Sans 35';font-variant-ligatures:none;text-align:left;dominant-baseline:middle;text-anchor:middle"
       d="m 405.32469,155.4 h -94 V 287 h 37.6 v -45.12 h 47 v -33.84 h -47 v -18.8 h 56.4 z" />
    <path
       id="path25985"
       style="font-style:normal;font-weight:normal;font-size:188px;line-height:1;font-family:'Brandmark Sans 35';font-variant-ligatures:none;text-align:left;dominant-baseline:middle;text-anchor:middle"
       d="m 453.30287,258.8 c -5.076,0 -7.708,-2.444 -7.708,-6.956 V 193 h -35.72 v 61.476 c 0,20.492 10.15201,35.344 35.72,35.344 21.24401,0 29.51601,-15.228 31.772,-29.704 h 1.504 c -1.31599,9.024 -4.324,17.86 -9.4,26.884 h 27.26 v -94 h -35.72 v 58.844 c 0,4.512 -2.256,6.956 -7.708,6.956 z" />
    <path
       id="path25987"
       style="font-style:normal;font-weight:normal;font-size:188px;line-height:1;font-family:'Brandmark Sans 35';font-variant-ligatures:none;text-align:left;dominant-baseline:middle;text-anchor:middle"
       d="m 546.04269,228.156 c 0,-4.512 2.256,-6.956 7.708,-6.956 h 16.168 v -31.02 h -8.46 c -21.244,0 -29.704,18.988 -31.772,33.464 h -1.504 c 1.316,-10.152 4.324,-20.492 9.4,-30.644 h -27.26 v 94 h 35.72 z" />
    <path
       id="path25989"
       style="font-style:normal;font-weight:normal;font-size:188px;line-height:1;font-family:'Brandmark Sans 35';font-variant-ligatures:none;text-align:left;dominant-baseline:middle;text-anchor:middle"
       d="m 621.31319,221.2 c 5.076,0 7.708,2.444 7.708,6.956 V 287 h 35.72 v -61.476 c 0,-20.492 -10.152,-35.344 -35.72,-35.344 -21.244,0 -29.516,18.988 -31.772,33.464 h -1.504 c 1.316,-10.152 4.324,-20.492 9.4,-30.644 h -27.26 v 94 h 35.72 v -58.844 c 0,-4.512 2.256,-6.956 7.708,-6.956 z" />
    <path
       id="path25991"
       style="font-style:normal;font-weight:normal;font-size:188px;line-height:1;font-family:'Brandmark Sans 35';font-variant-ligatures:none;text-align:left;dominant-baseline:middle;text-anchor:middle"
       d="m 676.453,166.68 c 0,10.34 8.46,18.8 18.8,18.8 10.34,0 18.8,-8.46 18.8,-18.8 0,-10.34 -8.46,-18.8 -18.8,-18.8 -10.34,0 -18.8,8.46 -18.8,18.8 z m 0.94,120.32 h 35.72 v -94 h -35.72 z" />
  </g>
</svg>